# Blender 3.6.0
# www.blender.org
mtllib floors.mtl
o Cube.001
v -15.041739 23.571571 6.549634
v -15.041739 23.571571 6.649634
v 14.958261 23.571571 6.549634
v 14.958261 23.571571 6.649634
v -15.041739 -6.428428 6.549634
v -15.041739 -6.428428 6.649634
v 14.958261 -6.428428 6.549634
v 14.958261 -6.428428 6.649634
v -15.041739 23.571571 6.649634
v 14.958261 23.571571 6.649634
v -15.041739 -6.428428 6.649634
v 14.958261 -6.428428 6.649634
vn -0.0000 1.0000 -0.0000
vn 1.0000 -0.0000 -0.0000
vn -0.0000 -1.0000 -0.0000
vn -1.0000 -0.0000 -0.0000
vn -0.0000 -0.0000 -1.0000
vn -0.0000 -0.0000 1.0000
vt 0.435132 0.000000
vt 0.577989 0.285714
vt 0.480564 0.428571
vt 0.337707 0.142857
vt 0.383139 0.571429
vt 0.240282 0.285714
vt 0.285714 0.714286
vt 0.142857 0.428571
vt 0.133496 0.340266
vt 0.335223 0.743721
vt 0.197650 0.945448
vt -0.004077 0.541993
vt 0.869901 0.717589
vt 0.625275 0.717589
vt 0.625275 0.298666
vt 0.869901 0.298666
vt -4.202565 -7.403320
vt 4.967320 -7.403320
vt 4.967320 8.300098
vt -4.202565 8.300102
s 0
usemtl u
f 1/1/1 2/2/1 4/3/1 3/4/1
f 3/4/2 4/3/2 8/5/2 7/6/2
f 7/6/3 8/5/3 6/7/3 5/8/3
f 5/9/4 6/10/4 2/11/4 1/12/4
f 3/13/5 7/14/5 5/15/5 1/16/5
f 12/17/6 10/18/6 9/19/6 11/20/6
o Cube.008
v -15.041739 23.571571 -0.033472
v -15.041739 23.571571 0.066528
v 14.958261 23.571571 -0.033472
v 14.958261 23.571571 0.066528
v -15.041739 -6.428428 -0.033472
v -15.041739 -6.428428 0.066528
v 14.958261 -6.428428 -0.033472
v 14.958261 -6.428428 0.066528
v -15.041739 23.571571 0.066528
v 14.958261 23.571571 0.066528
v -15.041739 -6.428428 0.066528
v 14.958261 -6.428428 0.066528
vn -0.0000 1.0000 -0.0000
vn 1.0000 -0.0000 -0.0000
vn -0.0000 -1.0000 -0.0000
vn -1.0000 -0.0000 -0.0000
vn -0.0000 -0.0000 -1.0000
vn -0.0000 -0.0000 1.0000
vt 0.435132 0.000000
vt 0.577989 0.285714
vt 0.480564 0.428571
vt 0.337707 0.142857
vt 0.383139 0.571429
vt 0.240282 0.285714
vt 0.285714 0.714286
vt 0.142857 0.428571
vt 0.133496 0.340266
vt 0.335223 0.743721
vt 0.197650 0.945448
vt -0.004077 0.541993
vt 0.869901 0.717589
vt 0.625275 0.717589
vt 0.625275 0.298666
vt 0.869901 0.298666
vt -4.202565 -7.403320
vt 4.967320 -7.403320
vt 4.967320 8.300098
vt -4.202565 8.300102
s 0
usemtl u.001
f 13/21/7 14/22/7 16/23/7 15/24/7
f 15/24/8 16/23/8 20/25/8 19/26/8
f 19/26/9 20/25/9 18/27/9 17/28/9
f 17/29/10 18/30/10 14/31/10 13/32/10
f 15/33/11 19/34/11 17/35/11 13/36/11
f 24/37/12 22/38/12 21/39/12 23/40/12
